<?xml version="1.0" encoding="UTF-8"?> <svg xmlns="http://www.w3.org/2000/svg" width="1080" height="810" viewBox="0 0 1080 810" fill="none"> <g clip-path="url(#clip0_927_5875)"> <rect width="1080" height="810" fill="white"></rect> <g clip-path="url(#clip1_927_5875)"> <path d="M109.234 -39.7958H1439V1384.95H109.234V-39.7958Z" fill="#F4F4F4"></path> <path d="M168.602 162.043C168.602 139.655 168.602 128.462 175.557 121.507C182.512 114.552 193.705 114.552 216.093 114.552H1332.14C1354.53 114.552 1365.73 114.552 1372.68 121.507C1379.64 128.462 1379.64 139.655 1379.64 162.043V625.086C1379.64 647.473 1379.64 658.667 1372.68 665.622C1365.73 672.577 1354.53 672.577 1332.14 672.577H216.093C193.705 672.577 182.512 672.577 175.557 665.622C168.602 658.667 168.602 647.473 168.602 625.086V162.043Z" fill="white"></path> <path d="M298.02 241.592C298.02 232.636 298.02 228.159 300.802 225.377C303.584 222.595 308.061 222.595 317.016 222.595H742.065C751.02 222.595 755.498 222.595 758.28 225.377C761.062 228.159 761.062 232.636 761.062 241.592V251.09C761.062 260.045 761.062 264.522 758.28 267.304C755.498 270.086 751.02 270.086 742.065 270.086H317.016C308.061 270.086 303.584 270.086 300.802 267.304C298.02 264.522 298.02 260.045 298.02 251.09V241.592Z" fill="#F4F4F4"></path> <path d="M869.102 185.789C869.102 174.595 869.102 168.998 872.579 165.521C876.057 162.043 881.653 162.043 892.847 162.043H1308.4C1319.59 162.043 1325.19 162.043 1328.67 165.521C1332.14 168.998 1332.14 174.595 1332.14 185.789V601.34C1332.14 612.534 1332.14 618.131 1328.67 621.608C1325.19 625.086 1319.59 625.086 1308.4 625.086H892.847C881.653 625.086 876.057 625.086 872.579 621.608C869.102 618.131 869.102 612.534 869.102 601.34V185.789Z" fill="#F4F4F4"></path> <path d="M298.02 312.829C298.02 310.616 298.02 309.51 298.381 308.637C298.863 307.473 299.788 306.549 300.951 306.067C301.824 305.705 302.93 305.705 305.143 305.705H694.574C696.787 305.705 697.893 305.705 698.766 306.067C699.929 306.549 700.854 307.473 701.336 308.637C701.698 309.51 701.698 310.616 701.698 312.829V312.829C701.698 315.042 701.698 316.148 701.336 317.021C700.854 318.184 699.929 319.109 698.766 319.591C697.893 319.953 696.787 319.953 694.574 319.953H305.143C302.93 319.953 301.824 319.953 300.951 319.591C299.788 319.109 298.863 318.184 298.381 317.021C298.02 316.148 298.02 315.042 298.02 312.829V312.829Z" fill="#F4F4F4"></path> <path d="M298.02 342.511C298.02 340.298 298.02 339.192 298.381 338.319C298.863 337.155 299.788 336.231 300.951 335.749C301.824 335.387 302.93 335.387 305.143 335.387H666.079C668.292 335.387 669.398 335.387 670.271 335.749C671.435 336.231 672.359 337.155 672.841 338.319C673.203 339.192 673.203 340.298 673.203 342.511V342.511C673.203 344.724 673.203 345.83 672.841 346.703C672.359 347.867 671.435 348.791 670.271 349.273C669.398 349.635 668.292 349.635 666.079 349.635H305.143C302.93 349.635 301.824 349.635 300.951 349.273C299.788 348.791 298.863 347.867 298.381 346.703C298.02 345.83 298.02 344.724 298.02 342.511V342.511Z" fill="#F4F4F4"></path> <path d="M298.02 372.193C298.02 369.98 298.02 368.874 298.381 368.001C298.863 366.838 299.788 365.913 300.951 365.431C301.824 365.069 302.93 365.069 305.143 365.069H609.089C611.302 365.069 612.408 365.069 613.281 365.431C614.445 365.913 615.369 366.838 615.851 368.001C616.213 368.874 616.213 369.98 616.213 372.193V372.193C616.213 374.406 616.213 375.512 615.851 376.385C615.369 377.549 614.445 378.473 613.281 378.955C612.408 379.317 611.302 379.317 609.089 379.317H305.143C302.93 379.317 301.824 379.317 300.951 378.955C299.788 378.473 298.863 377.549 298.381 376.385C298.02 375.512 298.02 374.406 298.02 372.193V372.193Z" fill="#F4F4F4"></path> <path d="M298.02 401.875C298.02 399.663 298.02 398.556 298.381 397.683C298.863 396.52 299.788 395.595 300.951 395.113C301.824 394.752 302.93 394.752 305.143 394.752H724.256C726.469 394.752 727.575 394.752 728.448 395.113C729.612 395.595 730.536 396.52 731.018 397.683C731.38 398.556 731.38 399.663 731.38 401.875V401.875C731.38 404.088 731.38 405.195 731.018 406.067C730.536 407.231 729.612 408.156 728.448 408.638C727.575 408.999 726.469 408.999 724.256 408.999H305.143C302.93 408.999 301.824 408.999 300.951 408.638C299.788 408.156 298.863 407.231 298.381 406.067C298.02 405.195 298.02 404.088 298.02 401.875V401.875Z" fill="#F4F4F4"></path> <path d="M298.02 431.558C298.02 429.345 298.02 428.238 298.381 427.366C298.863 426.202 299.788 425.277 300.951 424.795C301.824 424.434 302.93 424.434 305.143 424.434H649.457C651.67 424.434 652.776 424.434 653.649 424.795C654.812 425.277 655.737 426.202 656.219 427.366C656.581 428.238 656.581 429.345 656.581 431.558V431.558C656.581 433.77 656.581 434.877 656.219 435.75C655.737 436.913 654.812 437.838 653.649 438.32C652.776 438.681 651.67 438.681 649.457 438.681H305.143C302.93 438.681 301.824 438.681 300.951 438.32C299.788 437.838 298.863 436.913 298.381 435.75C298.02 434.877 298.02 433.77 298.02 431.558V431.558Z" fill="#F4F4F4"></path> <path d="M298.02 502.795C298.02 493.84 298.02 489.362 300.802 486.58C303.584 483.798 308.061 483.798 317.016 483.798H445.243C454.198 483.798 458.676 483.798 461.458 486.58C464.24 489.362 464.24 493.84 464.24 502.795V512.293C464.24 521.248 464.24 525.726 461.458 528.508C458.676 531.29 454.198 531.29 445.243 531.29H317.016C308.061 531.29 303.584 531.29 300.802 528.508C298.02 525.726 298.02 521.248 298.02 512.293V502.795Z" fill="#F4F4F4"></path> </g> <path opacity="0.2" d="M109.234 452.929C109.234 430.541 109.234 419.347 116.189 412.392C123.144 405.437 134.338 405.437 156.726 405.437H204.217C226.605 405.437 237.799 405.437 244.754 412.392C251.709 419.347 251.709 430.541 251.709 452.929V500.42C251.709 522.808 251.709 534.002 244.754 540.957C237.799 547.912 226.605 547.912 204.217 547.912H156.726C134.338 547.912 123.144 547.912 116.189 540.957C109.234 534.002 109.234 522.808 109.234 500.42V452.929Z" fill="url(#paint0_linear_927_5875)"></path> <path opacity="0.4" d="M85.4922 429.183C85.4922 406.795 85.4922 395.601 92.4472 388.646C99.4021 381.691 110.596 381.691 132.984 381.691H180.475C202.863 381.691 214.057 381.691 221.012 388.646C227.967 395.601 227.967 406.795 227.967 429.183V476.675C227.967 499.062 227.967 510.256 221.012 517.211C214.057 524.166 202.863 524.166 180.475 524.166H132.984C110.596 524.166 99.4021 524.166 92.4472 517.211C85.4922 510.256 85.4922 499.062 85.4922 476.675V429.183Z" fill="url(#paint1_linear_927_5875)"></path> <path opacity="0.6" d="M61.7422 405.437C61.7422 383.05 61.7422 371.856 68.6972 364.901C75.6521 357.946 86.846 357.946 109.234 357.946H156.725C179.113 357.946 190.307 357.946 197.262 364.901C204.217 371.856 204.217 383.05 204.217 405.437V452.929C204.217 475.317 204.217 486.51 197.262 493.465C190.307 500.42 179.113 500.42 156.725 500.42H109.234C86.846 500.42 75.6521 500.42 68.6972 493.465C61.7422 486.51 61.7422 475.317 61.7422 452.929V405.437Z" fill="url(#paint2_linear_927_5875)"></path> <path d="M38 381.692C38 359.304 38 348.11 44.955 341.155C51.9099 334.2 63.1038 334.2 85.4915 334.2H132.983C155.371 334.2 166.565 334.2 173.52 341.155C180.475 348.11 180.475 359.304 180.475 381.692V429.183C180.475 451.571 180.475 462.765 173.52 469.72C166.565 476.675 155.371 476.675 132.983 476.675H85.4915C63.1038 476.675 51.9099 476.675 44.955 469.72C38 462.765 38 451.571 38 429.183V381.692Z" fill="url(#paint3_linear_927_5875)"></path> <path d="M91.2266 405.437H127.241" stroke="white" stroke-width="3.85869" stroke-linecap="round" stroke-linejoin="round"></path> <path d="M104.089 392.575L91.2266 405.437" stroke="white" stroke-width="3.85869" stroke-linecap="round" stroke-linejoin="round"></path> <path d="M104.089 418.3L91.2266 405.437" stroke="white" stroke-width="3.85869" stroke-linecap="round" stroke-linejoin="round"></path> </g> <defs> <linearGradient id="paint0_linear_927_5875" x1="214.309" y1="405.437" x2="85.1655" y2="475.853" gradientUnits="userSpaceOnUse"> <stop stop-color="#3EB9FF"></stop> <stop offset="1" stop-color="#1387F1"></stop> </linearGradient> <linearGradient id="paint1_linear_927_5875" x1="190.567" y1="381.691" x2="61.4233" y2="452.107" gradientUnits="userSpaceOnUse"> <stop stop-color="#3EB9FF"></stop> <stop offset="1" stop-color="#1387F1"></stop> </linearGradient> <linearGradient id="paint2_linear_927_5875" x1="166.817" y1="357.946" x2="37.6733" y2="428.361" gradientUnits="userSpaceOnUse"> <stop stop-color="#3EB9FF"></stop> <stop offset="1" stop-color="#1387F1"></stop> </linearGradient> <linearGradient id="paint3_linear_927_5875" x1="143.075" y1="334.2" x2="13.9311" y2="404.615" gradientUnits="userSpaceOnUse"> <stop stop-color="#3EB9FF"></stop> <stop offset="1" stop-color="#1387F1"></stop> </linearGradient> <clipPath id="clip0_927_5875"> <rect width="1080" height="810" fill="white"></rect> </clipPath> <clipPath id="clip1_927_5875"> <rect x="109.234" y="54" width="1329.76" height="701.687" rx="35.6186" fill="white"></rect> </clipPath> </defs> </svg> 
