<?xml version="1.0" encoding="UTF-8"?> <svg xmlns="http://www.w3.org/2000/svg" width="1080" height="810" viewBox="0 0 1080 810" fill="none"> <rect width="1080" height="810" fill="white"></rect> <g clip-path="url(#clip0_966_5755)"> <path d="M50 145C50 99.7452 50 77.1177 64.0589 63.0589C78.1177 49 100.745 49 146 49H934C979.255 49 1001.88 49 1015.94 63.0589C1030 77.1177 1030 99.7452 1030 145V663C1030 708.255 1030 730.882 1015.94 744.941C1001.88 759 979.255 759 934 759H146C100.745 759 78.1177 759 64.0589 744.941C50 730.882 50 708.255 50 663V145Z" fill="#F4F4F4"></path> <path d="M-104 193C-104 162.83 -104 147.745 -94.6274 138.373C-85.2548 129 -70.1699 129 -40 129H247C277.17 129 292.255 129 301.627 138.373C311 147.745 311 162.83 311 193V615C311 645.17 311 660.255 301.627 669.627C292.255 679 277.17 679 247 679H-40C-70.1699 679 -85.2548 679 -94.6274 669.627C-104 660.255 -104 645.17 -104 615V193Z" fill="white"></path> <path d="M-54 540C-54 534.343 -54 531.515 -52.2426 529.757C-50.4853 528 -47.6569 528 -42 528H222C227.657 528 230.485 528 232.243 529.757C234 531.515 234 534.343 234 540V541C234 546.657 234 549.485 232.243 551.243C230.485 553 227.657 553 222 553H-42C-47.6569 553 -50.4853 553 -52.2426 551.243C-54 549.485 -54 546.657 -54 541V540Z" fill="#F4F4F4"></path> <path d="M-54 210.955C-54 195.891 -54 188.359 -49.3203 183.68C-44.6406 179 -37.1087 179 -22.0449 179H229.045C244.109 179 251.641 179 256.32 183.68C261 188.359 261 195.891 261 210.955V467.045C261 482.109 261 489.641 256.32 494.32C251.641 499 244.109 499 229.045 499H-22.045C-37.1087 499 -44.6406 499 -49.3203 494.32C-54 489.641 -54 482.109 -54 467.045V210.955Z" fill="#F4F4F4"></path> <path d="M-53.9258 579C-53.9258 577.136 -53.9258 576.204 -53.6213 575.469C-53.2153 574.489 -52.4366 573.71 -51.4565 573.304C-50.7214 573 -49.7895 573 -47.9258 573H181.074C182.938 573 183.87 573 184.605 573.304C185.585 573.71 186.364 574.489 186.77 575.469C187.074 576.204 187.074 577.136 187.074 579V579C187.074 580.864 187.074 581.796 186.77 582.531C186.364 583.511 185.585 584.29 184.605 584.696C183.87 585 182.938 585 181.074 585H-47.9258C-49.7895 585 -50.7214 585 -51.4565 584.696C-52.4366 584.29 -53.2153 583.511 -53.6213 582.531C-53.9258 581.796 -53.9258 580.864 -53.9258 579V579Z" fill="#F4F4F4"></path> <path d="M-53.9258 601C-53.9258 599.136 -53.9258 598.204 -53.6213 597.469C-53.2153 596.489 -52.4366 595.71 -51.4565 595.304C-50.7214 595 -49.7895 595 -47.9258 595H164.074C165.938 595 166.87 595 167.605 595.304C168.585 595.71 169.364 596.489 169.77 597.469C170.074 598.204 170.074 599.136 170.074 601V601C170.074 602.864 170.074 603.796 169.77 604.531C169.364 605.511 168.585 606.29 167.605 606.696C166.87 607 165.938 607 164.074 607H-47.9258C-49.7895 607 -50.7214 607 -51.4565 606.696C-52.4366 606.29 -53.2153 605.511 -53.6213 604.531C-53.9258 603.796 -53.9258 602.864 -53.9258 601V601Z" fill="#F4F4F4"></path> <path d="M-54 623C-54 621.136 -54 620.204 -53.6955 619.469C-53.2895 618.489 -52.5108 617.71 -51.5307 617.304C-50.7956 617 -49.8638 617 -48 617H132C133.864 617 134.796 617 135.531 617.304C136.511 617.71 137.29 618.489 137.696 619.469C138 620.204 138 621.136 138 623V623C138 624.864 138 625.796 137.696 626.531C137.29 627.511 136.511 628.29 135.531 628.696C134.796 629 133.864 629 132 629H-48C-49.8638 629 -50.7956 629 -51.5307 628.696C-52.5108 628.29 -53.2895 627.511 -53.6955 626.531C-54 625.796 -54 624.864 -54 623V623Z" fill="#F4F4F4"></path> <path d="M786 193C786 162.83 786 147.745 795.373 138.373C804.745 129 819.83 129 850 129H1137C1167.17 129 1182.25 129 1191.63 138.373C1201 147.745 1201 162.83 1201 193V615C1201 645.17 1201 660.255 1191.63 669.627C1182.25 679 1167.17 679 1137 679H850C819.83 679 804.745 679 795.373 669.627C786 660.255 786 645.17 786 615V193Z" fill="white"></path> <path d="M836 540C836 534.343 836 531.515 837.757 529.757C839.515 528 842.343 528 848 528H1112C1117.66 528 1120.49 528 1122.24 529.757C1124 531.515 1124 534.343 1124 540V541C1124 546.657 1124 549.485 1122.24 551.243C1120.49 553 1117.66 553 1112 553H848C842.343 553 839.515 553 837.757 551.243C836 549.485 836 546.657 836 541V540Z" fill="#F4F4F4"></path> <path d="M836 210.955C836 195.891 836 188.359 840.68 183.68C845.359 179 852.891 179 867.955 179H1119.04C1134.11 179 1141.64 179 1146.32 183.68C1151 188.359 1151 195.891 1151 210.955V467.045C1151 482.109 1151 489.641 1146.32 494.32C1141.64 499 1134.11 499 1119.04 499H867.955C852.891 499 845.359 499 840.68 494.32C836 489.641 836 482.109 836 467.045V210.955Z" fill="#F4F4F4"></path> <path d="M836.074 579C836.074 577.136 836.074 576.204 836.379 575.469C836.785 574.489 837.563 573.71 838.543 573.304C839.279 573 840.21 573 842.074 573H1071.07C1072.94 573 1073.87 573 1074.6 573.304C1075.59 573.71 1076.36 574.489 1076.77 575.469C1077.07 576.204 1077.07 577.136 1077.07 579V579C1077.07 580.864 1077.07 581.796 1076.77 582.531C1076.36 583.511 1075.59 584.29 1074.6 584.696C1073.87 585 1072.94 585 1071.07 585H842.074C840.21 585 839.279 585 838.543 584.696C837.563 584.29 836.785 583.511 836.379 582.531C836.074 581.796 836.074 580.864 836.074 579V579Z" fill="#F4F4F4"></path> <path d="M836.074 601C836.074 599.136 836.074 598.204 836.379 597.469C836.785 596.489 837.563 595.71 838.543 595.304C839.279 595 840.21 595 842.074 595H1054.07C1055.94 595 1056.87 595 1057.6 595.304C1058.59 595.71 1059.36 596.489 1059.77 597.469C1060.07 598.204 1060.07 599.136 1060.07 601V601C1060.07 602.864 1060.07 603.796 1059.77 604.531C1059.36 605.511 1058.59 606.29 1057.6 606.696C1056.87 607 1055.94 607 1054.07 607H842.074C840.21 607 839.279 607 838.543 606.696C837.563 606.29 836.785 605.511 836.379 604.531C836.074 603.796 836.074 602.864 836.074 601V601Z" fill="#F4F4F4"></path> <path d="M836 623C836 621.136 836 620.204 836.304 619.469C836.71 618.489 837.489 617.71 838.469 617.304C839.204 617 840.136 617 842 617H1022C1023.86 617 1024.8 617 1025.53 617.304C1026.51 617.71 1027.29 618.489 1027.7 619.469C1028 620.204 1028 621.136 1028 623V623C1028 624.864 1028 625.796 1027.7 626.531C1027.29 627.511 1026.51 628.29 1025.53 628.696C1024.8 629 1023.86 629 1022 629H842C840.136 629 839.204 629 838.469 628.696C837.489 628.29 836.71 627.511 836.304 626.531C836 625.796 836 624.864 836 623V623Z" fill="#F4F4F4"></path> <path d="M341 193C341 162.83 341 147.745 350.373 138.373C359.745 129 374.83 129 405 129H692C722.17 129 737.255 129 746.627 138.373C756 147.745 756 162.83 756 193V615C756 645.17 756 660.255 746.627 669.627C737.255 679 722.17 679 692 679H405C374.83 679 359.745 679 350.373 669.627C341 660.255 341 645.17 341 615V193Z" fill="white"></path> <path d="M391 540C391 534.343 391 531.515 392.757 529.757C394.515 528 397.343 528 403 528H667C672.657 528 675.485 528 677.243 529.757C679 531.515 679 534.343 679 540V541C679 546.657 679 549.485 677.243 551.243C675.485 553 672.657 553 667 553H403C397.343 553 394.515 553 392.757 551.243C391 549.485 391 546.657 391 541V540Z" fill="#F4F4F4"></path> <path opacity="0.2" d="M481 121C481 105.915 481 98.3726 485.686 93.6863C490.373 89 497.915 89 513 89H764C779.085 89 786.627 89 791.314 93.6863C796 98.3726 796 105.915 796 121V377C796 392.085 796 399.627 791.314 404.314C786.627 409 779.085 409 764 409H513C497.915 409 490.373 409 485.686 404.314C481 399.627 481 392.085 481 377V121Z" fill="url(#paint0_linear_966_5755)"></path> <path opacity="0.4" d="M451 151C451 135.915 451 128.373 455.686 123.686C460.373 119 467.915 119 483 119H734C749.085 119 756.627 119 761.314 123.686C766 128.373 766 135.915 766 151V407C766 422.085 766 429.627 761.314 434.314C756.627 439 749.085 439 734 439H483C467.915 439 460.373 439 455.686 434.314C451 429.627 451 422.085 451 407V151Z" fill="url(#paint1_linear_966_5755)"></path> <path opacity="0.6" d="M421 181C421 165.915 421 158.373 425.686 153.686C430.373 149 437.915 149 453 149H704C719.085 149 726.627 149 731.314 153.686C736 158.373 736 165.915 736 181V437C736 452.085 736 459.627 731.314 464.314C726.627 469 719.085 469 704 469H453C437.915 469 430.373 469 425.686 464.314C421 459.627 421 452.085 421 437V181Z" fill="url(#paint2_linear_966_5755)"></path> <path d="M391 211C391 195.915 391 188.373 395.686 183.686C400.373 179 407.915 179 423 179H674C689.085 179 696.627 179 701.314 183.686C706 188.373 706 195.915 706 211V467C706 482.085 706 489.627 701.314 494.314C696.627 499 689.085 499 674 499H423C407.915 499 400.373 499 395.686 494.314C391 489.627 391 482.085 391 467V211Z" fill="url(#paint3_linear_966_5755)"></path> <path d="M391.074 579C391.074 577.136 391.074 576.204 391.379 575.469C391.785 574.489 392.563 573.71 393.543 573.304C394.279 573 395.21 573 397.074 573H626.074C627.938 573 628.87 573 629.605 573.304C630.585 573.71 631.364 574.489 631.77 575.469C632.074 576.204 632.074 577.136 632.074 579V579C632.074 580.864 632.074 581.796 631.77 582.531C631.364 583.511 630.585 584.29 629.605 584.696C628.87 585 627.938 585 626.074 585H397.074C395.21 585 394.279 585 393.543 584.696C392.563 584.29 391.785 583.511 391.379 582.531C391.074 581.796 391.074 580.864 391.074 579V579Z" fill="#F4F4F4"></path> <path d="M391.074 601C391.074 599.136 391.074 598.204 391.379 597.469C391.785 596.489 392.563 595.71 393.543 595.304C394.279 595 395.21 595 397.074 595H609.074C610.938 595 611.87 595 612.605 595.304C613.585 595.71 614.364 596.489 614.77 597.469C615.074 598.204 615.074 599.136 615.074 601V601C615.074 602.864 615.074 603.796 614.77 604.531C614.364 605.511 613.585 606.29 612.605 606.696C611.87 607 610.938 607 609.074 607H397.074C395.21 607 394.279 607 393.543 606.696C392.563 606.29 391.785 605.511 391.379 604.531C391.074 603.796 391.074 602.864 391.074 601V601Z" fill="#F4F4F4"></path> <path d="M391 623C391 621.136 391 620.204 391.304 619.469C391.71 618.489 392.489 617.71 393.469 617.304C394.204 617 395.136 617 397 617H577C578.864 617 579.796 617 580.531 617.304C581.511 617.71 582.29 618.489 582.696 619.469C583 620.204 583 621.136 583 623V623C583 624.864 583 625.796 582.696 626.531C582.29 627.511 581.511 628.29 580.531 628.696C579.796 629 578.864 629 577 629H397C395.136 629 394.204 629 393.469 628.696C392.489 628.29 391.71 627.511 391.304 626.531C391 625.796 391 624.864 391 623V623Z" fill="#F4F4F4"></path> <path fill-rule="evenodd" clip-rule="evenodd" d="M548.102 292.1C530.58 292.1 516.375 306.305 516.375 323.828C516.375 325.99 514.621 327.743 512.459 327.743C510.296 327.743 508.543 325.99 508.543 323.828C508.543 301.979 526.254 284.268 548.102 284.268C569.95 284.268 587.662 301.979 587.662 323.828C587.662 325.99 585.909 327.743 583.746 327.743C581.583 327.743 579.83 325.99 579.83 323.828C579.83 306.305 565.625 292.1 548.102 292.1Z" fill="white"></path> <path fill-rule="evenodd" clip-rule="evenodd" d="M548.104 307.375C539.018 307.375 531.652 314.742 531.652 323.827C531.652 325.99 529.899 327.743 527.736 327.743C525.573 327.743 523.82 325.99 523.82 323.827C523.82 310.417 534.693 299.544 548.104 299.544C561.515 299.544 572.387 310.417 572.387 323.827C572.387 325.99 570.634 327.743 568.472 327.743C566.309 327.743 564.556 325.99 564.556 323.827C564.556 314.742 557.189 307.375 548.104 307.375Z" fill="white"></path> <path fill-rule="evenodd" clip-rule="evenodd" d="M536.828 326.374C536.828 319.995 542.003 314.82 548.382 314.82C554.761 314.82 559.936 319.995 559.936 326.374V340.867L578.158 343.839C578.158 343.839 578.158 343.839 578.158 343.839C585.642 345.059 590.814 351.984 589.877 359.502L589.877 359.504L587.116 381.591C586.229 388.642 580.238 393.939 573.124 393.939H546.198C541.484 393.939 537.078 391.585 534.461 387.658C534.461 387.657 534.461 387.657 534.46 387.657L520.719 367.042C517.59 362.352 518.207 356.103 522.195 352.114C526.167 348.142 532.261 347.585 536.828 350.444V326.374ZM548.382 322.651C546.328 322.651 544.66 324.32 544.66 326.374V359.471C544.66 361.055 543.706 362.483 542.243 363.089C540.779 363.695 539.095 363.36 537.975 362.24L533.387 357.652C531.826 356.091 529.295 356.091 527.733 357.652C526.385 359 526.177 361.112 527.234 362.695L527.235 362.697L540.978 383.314L540.978 383.315C542.14 385.059 544.098 386.107 546.198 386.107H573.124C576.283 386.107 578.949 383.757 579.346 380.616C579.346 380.616 579.346 380.616 579.346 380.616C579.346 380.615 579.346 380.614 579.346 380.613L582.105 358.534C582.105 358.533 582.105 358.533 582.105 358.532C582.522 355.185 580.219 352.11 576.898 351.568L555.389 348.06C553.495 347.751 552.104 346.115 552.104 344.195V326.374C552.104 324.32 550.435 322.651 548.382 322.651Z" fill="white"></path> </g> <defs> <linearGradient id="paint0_linear_966_5755" x1="796" y1="77.6829" x2="561.926" y2="508.122" gradientUnits="userSpaceOnUse"> <stop stop-color="#C986FF"></stop> <stop offset="1" stop-color="#911CEE"></stop> </linearGradient> <linearGradient id="paint1_linear_966_5755" x1="766" y1="107.683" x2="531.926" y2="538.122" gradientUnits="userSpaceOnUse"> <stop stop-color="#C986FF"></stop> <stop offset="1" stop-color="#911CEE"></stop> </linearGradient> <linearGradient id="paint2_linear_966_5755" x1="736" y1="137.683" x2="501.926" y2="568.122" gradientUnits="userSpaceOnUse"> <stop stop-color="#C986FF"></stop> <stop offset="1" stop-color="#911CEE"></stop> </linearGradient> <linearGradient id="paint3_linear_966_5755" x1="706" y1="167.683" x2="471.926" y2="598.122" gradientUnits="userSpaceOnUse"> <stop stop-color="#C986FF"></stop> <stop offset="1" stop-color="#911CEE"></stop> </linearGradient> <clipPath id="clip0_966_5755"> <rect width="980" height="710" fill="white" transform="translate(50 49)"></rect> </clipPath> </defs> </svg> 
